<svg xmlns="http://www.w3.org/2000/svg" viewBox="0 0 64 64" role="img" aria-label="RN monogram favicon">
  <defs>
    <linearGradient id="bg" x1="0" y1="0" x2="1" y2="1">
      <stop offset="0%" stop-color="#0b3d91" />
      <stop offset="55%" stop-color="#14532d" />
      <stop offset="100%" stop-color="#7c2d12" />
    </linearGradient>
    <linearGradient id="glow" x1="0" y1="0" x2="0" y2="1">
      <stop offset="0%" stop-color="#ffffff" stop-opacity="0.24" />
      <stop offset="100%" stop-color="#ffffff" stop-opacity="0" />
    </linearGradient>
  </defs>
  <rect x="4" y="4" width="56" height="56" rx="14" fill="url(#bg)" />
  <rect x="4.75" y="4.75" width="54.5" height="54.5" rx="13.25" fill="none" stroke="#f5f2ea" stroke-opacity="0.2" stroke-width="1.5" />
  <path d="M10 16C18 9 32 8 45 11" fill="none" stroke="url(#glow)" stroke-width="3" stroke-linecap="round" />
  <circle cx="50" cy="14" r="3.5" fill="#fcd34d" />
  <g fill="none" stroke="#f5f2ea" stroke-width="4.5" stroke-linecap="round" stroke-linejoin="round">
    <path d="M19 18V46" />
    <path d="M19 18H29C34 18 37 21 37 26C37 31 34 34 29 34H19" />
    <path d="M28.5 34L38 46" />
    <path d="M42 46V18" />
    <path d="M42 18L55 46" />
    <path d="M55 46V18" />
  </g>
</svg>
